<svg width="158" height="45" viewBox="0 0 158 45" fill="none" xmlns="http://www.w3.org/2000/svg">
<g filter="url(#filter0_d_94_935)">
<path d="M33.209 29.5332L38.0605 9.40625H43.6152L36.1973 35H32.4531L33.209 29.5332ZM29.0605 9.40625L33.8945 29.5332L34.6855 35H30.9238L23.5586 9.40625H29.0605ZM51.4023 9.40625V35H46.2871V9.40625H51.4023ZM86.3828 9.40625H91.5156V26.9844C91.5156 28.9531 91.1523 30.5586 90.4258 31.8008C89.7109 33.0312 88.7207 33.9336 87.4551 34.5078C86.1895 35.0703 84.7422 35.3516 83.1133 35.3516C81.4727 35.3516 80.0137 35.0703 78.7363 34.5078C77.459 33.9336 76.4629 33.0312 75.748 31.8008C75.0449 30.5586 74.6934 28.9531 74.6934 26.9844V9.40625H79.8262V26.9844C79.8262 28.0977 79.9492 28.9531 80.1953 29.5508C80.4531 30.1484 80.8223 30.5586 81.3027 30.7812C81.7949 30.9922 82.3984 31.0977 83.1133 31.0977C83.8398 31.0977 84.4375 30.9922 84.9062 30.7812C85.3867 30.5586 85.75 30.1484 85.9961 29.5508C86.2539 28.9531 86.3828 28.0977 86.3828 26.9844V9.40625ZM95.4707 9.40625H103.68C105.391 9.40625 106.85 9.69922 108.057 10.2852C109.264 10.8711 110.189 11.7383 110.834 12.8867C111.479 14.0352 111.801 15.4531 111.801 17.1406C111.801 18.5234 111.613 19.707 111.238 20.6914C110.863 21.6641 110.33 22.4785 109.639 23.1348C108.947 23.7793 108.121 24.2949 107.16 24.6816L105.596 25.6133H98.9336L98.916 21.3418H103.539C104.242 21.3418 104.822 21.1895 105.279 20.8848C105.748 20.5684 106.094 20.1289 106.316 19.5664C106.551 18.9922 106.668 18.3242 106.668 17.5625C106.668 16.7539 106.562 16.0625 106.352 15.4883C106.152 14.9023 105.83 14.457 105.385 14.1523C104.951 13.8359 104.383 13.6777 103.68 13.6777H100.621V35H95.4707V9.40625ZM107.09 35L102.396 23.5918L107.793 23.5742L112.592 34.7539V35H107.09ZM124.65 13.9766L119.148 35H113.717L121.715 9.40625H125.107L124.65 13.9766ZM128.992 35L123.455 13.9766L122.945 9.40625H126.391L134.459 35H128.992ZM129.186 25.4551V29.7266H117.637V25.4551H129.186Z" fill="#282828"/>
<path d="M71.6699 30.7461V35H56.4473V30.7461H71.6699ZM71.4766 12.4121L58.6797 35H55.0938V31.8887L68.0312 9.40625H71.4766V12.4121ZM69.7363 9.40625V13.6777H54.9883V9.40625H69.7363Z" fill="#6D66C9"/>
</g>
<defs>
<filter id="filter0_d_94_935" x="-4" y="0" width="166" height="53" filterUnits="userSpaceOnUse" color-interpolation-filters="sRGB">
<feFlood flood-opacity="0" result="BackgroundImageFix"/>
<feColorMatrix in="SourceAlpha" type="matrix" values="0 0 0 0 0 0 0 0 0 0 0 0 0 0 0 0 0 0 127 0" result="hardAlpha"/>
<feOffset dy="4"/>
<feGaussianBlur stdDeviation="2"/>
<feComposite in2="hardAlpha" operator="out"/>
<feColorMatrix type="matrix" values="0 0 0 0 0 0 0 0 0 0 0 0 0 0 0 0 0 0 0.25 0"/>
<feBlend mode="normal" in2="BackgroundImageFix" result="effect1_dropShadow_94_935"/>
<feBlend mode="normal" in="SourceGraphic" in2="effect1_dropShadow_94_935" result="shape"/>
</filter>
</defs>
</svg>
