<svg width="65" height="36" viewBox="0 0 65 36" fill="none" xmlns="http://www.w3.org/2000/svg">
<rect x="1.2" y="1.2" width="62.6" height="33.6" rx="16.8" fill="#38A7FF" stroke="#3355FF" stroke-width="2.4"/>
<path d="M62.0787 18C62.0787 25.9529 55.539 32.4 47.4719 32.4C39.4048 32.4 32.8652 25.9529 32.8652 18C32.8652 10.0471 39.4048 3.60001 47.4719 3.60001C55.539 3.60001 62.0787 10.0471 62.0787 18Z" fill="white"/>
<path d="M52.5843 18C52.5843 20.7835 50.2954 23.04 47.4719 23.04C44.6484 23.04 42.3596 20.7835 42.3596 18C42.3596 15.2165 44.6484 12.96 47.4719 12.96C50.2954 12.96 52.5843 15.2165 52.5843 18Z" fill="#FDC200"/>
<path d="M16.7977 21.96C16.7977 22.9541 15.9803 23.76 14.9719 23.76C13.9635 23.76 13.1461 22.9541 13.1461 21.96C13.1461 20.9659 13.9635 20.16 14.9719 20.16C15.9803 20.16 16.7977 20.9659 16.7977 21.96Z" fill="white"/>
<path d="M24.1012 9.72001C24.1012 10.3165 23.6107 10.8 23.0057 10.8C22.4006 10.8 21.9102 10.3165 21.9102 9.72001C21.9102 9.12355 22.4006 8.64001 23.0057 8.64001C23.6107 8.64001 24.1012 9.12355 24.1012 9.72001Z" fill="white"/>
<path d="M10.2247 22.32C10.2247 23.1153 9.57073 23.76 8.76402 23.76C7.95731 23.76 7.30334 23.1153 7.30334 22.32C7.30334 21.5247 7.95731 20.88 8.76402 20.88C9.57073 20.88 10.2247 21.5247 10.2247 22.32Z" fill="white"/>
<path d="M26.2921 9.36001C26.2921 10.1553 25.6382 10.8 24.8315 10.8C24.0248 10.8 23.3708 10.1553 23.3708 9.36001C23.3708 8.56472 24.0248 7.92001 24.8315 7.92001C25.6382 7.92001 26.2921 8.56472 26.2921 9.36001Z" fill="white"/>
<path d="M29.9438 29.88C29.9438 30.4765 29.4533 30.96 28.8483 30.96C28.2433 30.96 27.7528 30.4765 27.7528 29.88C27.7528 29.2835 28.2433 28.8 28.8483 28.8C29.4533 28.8 29.9438 29.2835 29.9438 29.88Z" fill="white"/>
<path d="M14.6067 21.6C14.6067 23.1906 13.2988 24.48 11.6854 24.48C10.072 24.48 8.76404 23.1906 8.76404 21.6C8.76404 20.0094 10.072 18.72 11.6854 18.72C13.2988 18.72 14.6067 20.0094 14.6067 21.6Z" fill="white"/>
<path d="M27.0224 10.08C27.0224 10.4776 26.6955 10.8 26.2921 10.8C25.8888 10.8 25.5618 10.4776 25.5618 10.08C25.5618 9.68234 25.8888 9.35999 26.2921 9.35999C26.6955 9.35999 27.0224 9.68234 27.0224 10.08Z" fill="white"/>
<path d="M28.4831 30.24C28.4831 30.6376 28.1562 30.96 27.7528 30.96C27.3494 30.96 27.0225 30.6376 27.0225 30.24C27.0225 29.8423 27.3494 29.52 27.7528 29.52C28.1562 29.52 28.4831 29.8423 28.4831 30.24Z" fill="white"/>
<path d="M30.6742 30.24C30.6742 30.6376 30.3472 30.96 29.9438 30.96C29.5405 30.96 29.2135 30.6376 29.2135 30.24C29.2135 29.8423 29.5405 29.52 29.9438 29.52C30.3472 29.52 30.6742 29.8423 30.6742 30.24Z" fill="white"/>
<line x1="47.5416" y1="24.48" x2="47.5416" y2="28.8" stroke="#FDC200" stroke-width="1.6"/>
<line x1="47.5416" y1="7.20001" x2="47.5416" y2="11.52" stroke="#FDC200" stroke-width="1.6"/>
<line y1="-0.8" x2="4.35112" y2="-0.8" transform="matrix(0.712128 0.702049 -0.712128 0.702049 39.4382 10.8)" stroke="#FDC200" stroke-width="1.6"/>
<line y1="-0.8" x2="4.35112" y2="-0.8" transform="matrix(0.712128 -0.702049 0.712128 0.702049 52.5842 13.8547)" stroke="#FDC200" stroke-width="1.6"/>
<line y1="-0.8" x2="4.35112" y2="-0.8" transform="matrix(0.712128 -0.702049 0.712128 0.702049 40.1685 26.0947)" stroke="#FDC200" stroke-width="1.6"/>
<line y1="-0.8" x2="4.35112" y2="-0.8" transform="matrix(0.712128 0.702049 -0.712128 0.702049 51.8539 23.04)" stroke="#FDC200" stroke-width="1.6"/>
<line x1="58.4269" y1="18.08" x2="54.0449" y2="18.08" stroke="#FDC200" stroke-width="1.6"/>
<line x1="40.8989" y1="18.08" x2="36.5168" y2="18.08" stroke="#FDC200" stroke-width="1.6"/>
</svg>
