<svg width="65" height="36" viewBox="0 0 65 36" fill="none" xmlns="http://www.w3.org/2000/svg">
<rect x="1.2" y="1.2" width="62.6" height="33.6" rx="16.8" fill="#3C4145" stroke="#1C1C1C" stroke-width="2.4"/>
<path d="M17.5278 4.80017C24.9483 4.80017 30.935 10.7263 30.935 18.0004C30.9348 25.2743 24.9482 31.1996 17.5278 31.1996C10.1075 31.1994 4.12174 25.2742 4.12152 18.0004C4.12152 10.7264 10.1074 4.80033 17.5278 4.80017Z" fill="white" stroke="#E3E3C8" stroke-width="2.4"/>
<path d="M23.0056 8.40021C25.3842 8.40021 27.283 10.2969 27.283 12.6004C27.2827 14.9037 25.3841 16.7996 23.0056 16.7996C20.6272 16.7996 18.7285 14.9038 18.7283 12.6004C18.7283 10.2969 20.627 8.40021 23.0056 8.40021Z" fill="white" stroke="#E3E3C8" stroke-width="2.4"/>
<path d="M13.146 10.08C13.146 11.6706 11.8381 12.96 10.2247 12.96C8.61128 12.96 7.30334 11.6706 7.30334 10.08C7.30334 8.48943 8.61128 7.20001 10.2247 7.20001C11.8381 7.20001 13.146 8.48943 13.146 10.08Z" fill="#E3E3C8"/>
<path d="M21.1798 24.48C21.1798 26.4682 19.5449 28.08 17.5281 28.08C15.5113 28.08 13.8764 26.4682 13.8764 24.48C13.8764 22.4918 15.5113 20.88 17.5281 20.88C19.5449 20.88 21.1798 22.4918 21.1798 24.48Z" fill="#E3E3C8"/>
<path d="M54.7752 8.99998C54.7752 9.59645 54.2848 10.08 53.6797 10.08C53.0747 10.08 52.5842 9.59645 52.5842 8.99998C52.5842 8.40352 53.0747 7.91998 53.6797 7.91998C54.2848 7.91998 54.7752 8.40352 54.7752 8.99998Z" fill="#D3D3D9"/>
<path d="M38.7079 11.16C38.7079 11.7565 38.2174 12.24 37.6124 12.24C37.0073 12.24 36.5168 11.7565 36.5168 11.16C36.5168 10.5635 37.0073 10.08 37.6124 10.08C38.2174 10.08 38.7079 10.5635 38.7079 11.16Z" fill="#7B7D7E"/>
<path d="M46.0113 22.68C46.0113 22.8788 45.8478 23.04 45.6461 23.04C45.4444 23.04 45.2809 22.8788 45.2809 22.68C45.2809 22.4812 45.4444 22.32 45.6461 22.32C45.8478 22.32 46.0113 22.4812 46.0113 22.68Z" fill="#7B7D7E"/>
<path d="M57.6966 20.88C57.6966 21.6753 57.0427 22.32 56.2359 22.32C55.4292 22.32 54.7753 21.6753 54.7753 20.88C54.7753 20.0847 55.4292 19.44 56.2359 19.44C57.0427 19.44 57.6966 20.0847 57.6966 20.88Z" fill="#7B7D7E"/>
<path d="M47.4719 18C47.4719 18.3977 47.1449 18.72 46.7416 18.72C46.3382 18.72 46.0112 18.3977 46.0112 18C46.0112 17.6024 46.3382 17.28 46.7416 17.28C47.1449 17.28 47.4719 17.6024 47.4719 18Z" fill="white"/>
<path d="M52.5843 25.92C52.5843 26.3177 52.2573 26.64 51.8539 26.64C51.4506 26.64 51.1236 26.3177 51.1236 25.92C51.1236 25.5224 51.4506 25.2 51.8539 25.2C52.2573 25.2 52.5843 25.5224 52.5843 25.92Z" fill="white"/>
<path d="M41.6292 28.44C41.6292 29.4341 40.8118 30.24 39.8034 30.24C38.795 30.24 37.9775 29.4341 37.9775 28.44C37.9775 27.4459 38.795 26.64 39.8034 26.64C40.8118 26.64 41.6292 27.4459 41.6292 28.44Z" fill="#D3D3D9"/>
</svg>
